Voyage of the Dawn Treader R5 LiNE XViD.avi
Format : AVI
Format/Info : Audio Video Interleave
File size : 1.40 GiB
Duration : 1h 48mn
Overall bit rate : 1 858 Kbps
Writing library : VirtualDub build 32839/release

Video
ID : 0
Format : MPEG-4 Visual
Format profile : Advanced Simple@L5
Format settings, BVOP : Yes
Format settings, QPel : No
Format settings, GMC : No warppoints
Format settings, Matrix : Custom
Codec ID : XVID
Codec ID/Hint : XviD
Duration : 1h 48mn
Bit rate : 1 720 Kbps
Width : 672 pixels
Height : 358 pixels
Display aspect ratio : 1.877
Frame rate : 25.000 fps
Color space : YUV
Chroma subsampling : 4:2:0
Bit depth : 8 bits
Scan type : Progressive
Bits/(Pixel*Frame) : 0.286
Stream size : 1.30 GiB (93%)
Writing library : XviD 1.2.1 (UTC 2008-12-04)

Audio
ID : 1
Format : MPEG Audio
Format version : Version 1
Format profile : Layer 3
Codec ID : 55
Codec ID/Hint : MP3
Duration : 1h 48mn
Bit rate mode : Constant
Bit rate : 128 Kbps
Channel(s) : 2 channels
Sampling rate : 44.1 KHz
Stream size : 98.9 MiB (7%)
Alignment : Split accross interleaves
Interleave, duration : 40 ms (1.00 video frame)
Interleave, preload duration : 500 ms

 
http://www.imdb.com/title/tt0980970/

Users: 6.7/10 (9,448 votes) 162 reviews | Critics: 147 reviews Metascore: 53/100 (based on 33 reviews from Metacritic.com)

Lucy and Edmund Pevensie return to Narnia with their cousin Eustace where they meet up with Prince Caspian for a trip across the sea aboard the royal ship The Dawn Treader. Along the way they encounter dragons, dwarves, merfolk, and a band of lost warriors before reaching the edge of the world.
Director:
Michael Apted
Writers:
Christopher Markus (screenplay), Stephen McFeely (screenplay), and 2 more credits »
Stars:
Ben Barnes, Skandar Keynes and Georgie Henley